<svg width="200" height="200" viewBox="0 0 200 200" fill="none" xmlns="http://www.w3.org/2000/svg">
<g transform="translate(10, 10) scale(0.9)">
    <rect x="10" y="10" width="180" height="180" rx="20" fill="#10B981"/>

    <rect x="30" y="25" width="60" height="15" rx="5" fill="#A3E635"/>
    <rect x="110" y="25" width="60" height="15" rx="5" fill="#A3E635"/>

    <circle cx="45" cy="60" r="15" fill="url(#grad1)"/>
    <circle cx="85" cy="60" r="15" fill="url(#grad2)"/>
    <circle cx="125" cy="60" r="15" fill="url(#grad1)"/>
    <g transform="translate(150, 50)">
        <rect y="0" width="40" height="8" rx="2" fill="#FB923C"/>
        <circle cx="5" cy="4" r="2" fill="#93C5FD"/>
        <rect y="11" width="40" height="8" rx="2" fill="#FB923C"/>
        <circle cx="5" cy="15" r="2" fill="#93C5FD"/>
        <rect y="22" width="40" height="8" rx="2" fill="#FB923C"/>
        <circle cx="5" cy="26" r="2" fill="#93C5FD"/>
    </g>

    <circle cx="45" cy="105" r="15" fill="url(#grad1)"/>
    <rect x="70" y="95" width="60" height="20" rx="10" fill="black"/>
    <text x="100" y="110" font-family="Inter, sans-serif" font-size="12" fill="white" text-anchor="middle" font-weight="bold">RackUp</text>
    <circle cx="155" cy="105" r="15" fill="url(#grad2)"/>
    
    <g transform="translate(40, 130)">
        <rect y="0" width="40" height="8" rx="2" fill="#FB923C"/>
        <circle cx="5" cy="4" r="2" fill="#93C5FD"/>
        <rect y="11" width="40" height="8" rx="2" fill="#FB923C"/>
        <circle cx="5" cy="15" r="2" fill="#93C5FD"/>
        <rect y="22" width="40" height="8" rx="2" fill="#FB923C"/>
        <circle cx="5" cy="26" r="2" fill="#93C5FD"/>
    </g>

    <circle cx="115" cy="145" r="15" fill="url(#grad1)"/>
    <circle cx="155" cy="145" r="15" fill="url(#grad2)"/>
    
</g>
<defs>
    <linearGradient id="grad1" x1="0%" y1="0%" x2="100%" y2="100%">
        <stop offset="0%" style="stop-color:#93C5FD;stop-opacity:1" />
        <stop offset="100%" style="stop-color:#3B82F6;stop-opacity:1" />
    </linearGradient>
    <linearGradient id="grad2" x1="0%" y1="0%" x2="100%" y2="100%">
        <stop offset="0%" style="stop-color:#A3E635;stop-opacity:1" />
        <stop offset="100%" style="stop-color:#4D7C0F;stop-opacity:1" />
    </linearGradient>
</defs>
</svg>