<svg width="40" height="40" viewBox="0 0 40 40" fill="none" xmlns="http://www.w3.org/2000/svg">
<rect width="40" height="40" rx="8" fill="#111827"/>
<g clip-path="url(#clip0_105_2)">
<path d="M20.0002 10.5C19.3981 10.5 18.803 10.7402 18.3537 11.1688C17.9045 11.5973 17.6431 12.1688 17.6431 12.75V27.25C17.6431 27.8312 17.9045 28.4027 18.3537 28.8312C18.803 29.2598 19.3981 29.5 20.0002 29.5H25.8574C28.1818 29.5 30.0002 27.75 30.0002 25.5C30.0002 23.25 28.1818 21.5 25.8574 21.5H21.4288V18.5H25.0002C27.3245 18.5 29.1428 16.75 29.1428 14.5C29.1428 12.25 27.3245 10.5 25.0002 10.5H20.0002Z" fill="white"/>
<path d="M14.1429 21.5C16.4672 21.5 18.2857 19.75 18.2857 17.5C18.2857 15.25 16.4672 13.5 14.1429 13.5H10V21.5H14.1429Z" fill="white"/>
</g>
<defs>
<clipPath id="clip0_105_2">
<rect width="20" height="20" fill="white" transform="translate(10 10)"/>
</clipPath>
</defs>
</svg>
